<?xml version="1.0" standalone="no"?><svg xmlns="http://www.w3.org/2000/svg" viewBox="0 0 1440 320"><path fill="#0099ff" fill-opacity="0.7" d="M0,64L18.5,80C36.9,96,74,128,111,154.7C147.7,181,185,203,222,213.3C258.5,224,295,224,332,213.3C369.2,203,406,181,443,176C480,171,517,181,554,160C590.8,139,628,85,665,90.7C701.5,96,738,160,775,176C812.3,192,849,160,886,138.7C923.1,117,960,107,997,112C1033.8,117,1071,139,1108,165.3C1144.6,192,1182,224,1218,245.3C1255.4,267,1292,277,1329,266.7C1366.2,256,1403,224,1422,208L1440,192L1440,320L1421.5,320C1403.1,320,1366,320,1329,320C1292.3,320,1255,320,1218,320C1181.5,320,1145,320,1108,320C1070.8,320,1034,320,997,320C960,320,923,320,886,320C849.2,320,812,320,775,320C738.5,320,702,320,665,320C627.7,320,591,320,554,320C516.9,320,480,320,443,320C406.2,320,369,320,332,320C295.4,320,258,320,222,320C184.6,320,148,320,111,320C73.8,320,37,320,18,320L0,320Z"></path></svg>