<?xml version="1.0" standalone="no"?><svg xmlns="http://www.w3.org/2000/svg" viewBox="0 0 1440 320"><path fill="#000b76" fill-opacity="0.85" d="M0,224L21.8,229.3C43.6,235,87,245,131,234.7C174.5,224,218,192,262,192C305.5,192,349,224,393,234.7C436.4,245,480,235,524,213.3C567.3,192,611,160,655,170.7C698.2,181,742,235,785,266.7C829.1,299,873,309,916,293.3C960,277,1004,235,1047,197.3C1090.9,160,1135,128,1178,133.3C1221.8,139,1265,181,1309,181.3C1352.7,181,1396,139,1418,117.3L1440,96L1440,0L1418.2,0C1396.4,0,1353,0,1309,0C1265.5,0,1222,0,1178,0C1134.5,0,1091,0,1047,0C1003.6,0,960,0,916,0C872.7,0,829,0,785,0C741.8,0,698,0,655,0C610.9,0,567,0,524,0C480,0,436,0,393,0C349.1,0,305,0,262,0C218.2,0,175,0,131,0C87.3,0,44,0,22,0L0,0Z"></path></svg>